<?xml version="1.0" encoding="iso-8859-1"?>
<!-- Generator: Adobe Illustrator 16.0.0, SVG Export Plug-In . SVG Version: 6.00 Build 0)  -->
<!DOCTYPE svg PUBLIC "-//W3C//DTD SVG 1.1//EN" "http://www.w3.org/Graphics/SVG/1.1/DTD/svg11.dtd">
<svg version="1.1" id="Capa_1" xmlns="http://www.w3.org/2000/svg" xmlns:xlink="http://www.w3.org/1999/xlink" x="0px" y="0px"
	 width="46.09px" height="46.09px" viewBox="0 0 46.09 46.09" style="enable-background:new 0 0 46.09 46.09;" xml:space="preserve"
	>
<g>
	<g>
		<g>
			<path d="M19.265,27.264c-0.166,0.047-0.34-0.043-0.397-0.206c-1.992-5.618-8.101-8.677-13.816-6.85
				c-2.007,0.639-3.697,1.803-4.981,3.287c-0.085,0.1-0.094,0.24-0.021,0.349c0.073,0.107,0.207,0.152,0.329,0.111
				c0.046-0.015,0.092-0.029,0.138-0.045c6.585-2.104,13.617,1.432,15.891,7.913c0.058,0.164,0.233,0.254,0.4,0.206
				c6.598-1.905,13.558,1.779,15.659,8.362c0.016,0.047,0.028,0.095,0.044,0.141c0.037,0.124,0.152,0.207,0.281,0.203
				c0.13-0.005,0.24-0.094,0.271-0.22c0.464-1.905,0.433-3.956-0.207-5.963C31.027,28.837,24.994,25.632,19.265,27.264z"/>
			<path d="M29.762,17.779c-0.146,0.041-0.301-0.038-0.352-0.182c-1.757-4.951-7.139-7.647-12.177-6.037
				c-1.768,0.563-3.257,1.589-4.389,2.896c-0.074,0.086-0.082,0.212-0.019,0.307c0.063,0.094,0.183,0.135,0.29,0.098
				c0.04-0.013,0.08-0.025,0.12-0.038c5.803-1.853,12.001,1.261,14.006,6.974c0.05,0.145,0.205,0.225,0.353,0.182
				c5.814-1.68,11.948,1.57,13.801,7.372c0.015,0.042,0.026,0.083,0.039,0.125c0.033,0.108,0.136,0.184,0.249,0.18
				c0.113-0.003,0.211-0.082,0.238-0.191c0.409-1.682,0.382-3.488-0.185-5.26C40.13,19.165,34.812,16.34,29.762,17.779z"/>
			<path d="M45.775,14.31c-1.1-3.441-4.733-5.371-8.184-4.388c-0.101,0.028-0.205-0.026-0.24-0.124
				c-1.197-3.383-4.876-5.225-8.316-4.125c-1.207,0.386-2.226,1.087-2.998,1.979c-0.051,0.059-0.057,0.145-0.014,0.209
				c0.044,0.065,0.125,0.093,0.198,0.068c0.025-0.01,0.055-0.019,0.081-0.027c3.964-1.267,8.198,0.861,9.566,4.765
				c0.035,0.098,0.142,0.152,0.241,0.123c3.973-1.146,8.163,1.072,9.429,5.036c0.01,0.028,0.019,0.056,0.025,0.084
				c0.022,0.074,0.093,0.124,0.171,0.121c0.076-0.001,0.145-0.056,0.161-0.132C46.18,16.754,46.161,15.519,45.775,14.31z"/>
		</g>
	</g>
</g>
<g>
</g>
<g>
</g>
<g>
</g>
<g>
</g>
<g>
</g>
<g>
</g>
<g>
</g>
<g>
</g>
<g>
</g>
<g>
</g>
<g>
</g>
<g>
</g>
<g>
</g>
<g>
</g>
<g>
</g>
</svg>
